<svg xmlns="http://www.w3.org/2000/svg" width="459.256" height="358.949" viewBox="0 0 459.256 358.949">
  <g id="OBJECTS" transform="translate(-17.62 -72.752)">
    <path id="Path_1" data-name="Path 1" d="M467.061,431.7H40.055s-35.04-53.137-17.538-93.765,81.249-36.292,97.068-68.651S55.29,184.106,73.907,123.007s94.322-49.178,142.648-20.669,85.254,41.328,140.284,18.021c53.1-22.489,114.6,29.2,97.1,89.071s-37.758,57.227-32.914,87.6S503.815,309.921,467.061,431.7Z" fill="#fff3e1"/>
    <g id="Group_1" data-name="Group 1">
      <rect id="Rectangle_2" data-name="Rectangle 2" width="80.234" height="20.088" transform="translate(209.883 405.58)" fill="#3d485e"/>
      <path id="Rectangle_3" data-name="Rectangle 3" d="M8.789,0H131.512A8.789,8.789,0,0,1,140.3,8.789v1.646a1.629,1.629,0,0,1-1.629,1.629H1.629A1.629,1.629,0,0,1,0,10.435V8.789A8.789,8.789,0,0,1,8.789,0Z" transform="translate(179.85 419.637)" fill="#677291"/>
      <rect id="Rectangle_4" data-name="Rectangle 4" width="352.187" height="217.36" rx="8.505" transform="translate(73.907 192.912)" fill="#7578af"/>
      <path id="Path_2" data-name="Path 2" d="M82.412,192.912l184.936,4.457,150.24-4.457Z" fill="#b2bbf9"/>
      <path id="Path_3" data-name="Path 3" d="M98.329,388.334l180.824,4.486L395.5,388.334Z" fill="#b2bbf9"/>
      <path id="Path_4" data-name="Path 4" d="M188.639,419.637l64.468,4.008,55.381-4.008Z" fill="#b2bbf9"/>
      <path id="Path_5" data-name="Path 5" d="M92.9,410.272c13-.319,26-.457,39-.69l39-.395c26-.259,52-.3,78-.331,26,.032,52,.069,78,.326l39,.4c13,.235,26,.373,39,.694-13,.322-26,.46-39,.7l-39,.4c-26,.257-52,.294-78,.326-26-.036-52-.072-78-.331l-39-.395C118.895,410.73,105.9,410.592,92.9,410.272Z" fill="#2f3847"/>
    </g>
    <g id="Group_3" data-name="Group 3">
      <rect id="Rectangle_5" data-name="Rectangle 5" width="317.04" height="178.497" rx="2.515" transform="translate(91.48 209.837)" fill="#303947"/>
      <path id="Path_6" data-name="Path 6" d="M91.48,220.055V385.819A2.515,2.515,0,0,0,94,388.334h11.182V220.055Z" fill="#445063"/>
      <g id="Group_2" data-name="Group 2">
        <rect id="Rectangle_6" data-name="Rectangle 6" width="23.376" height="3.805" transform="translate(119.585 244.834)" fill="#c7d2e5"/>
        <rect id="Rectangle_7" data-name="Rectangle 7" width="23.376" height="3.805" transform="translate(119.585 318.056)" fill="#c7d2e5"/>
        <rect id="Rectangle_8" data-name="Rectangle 8" width="57.523" height="3.805" transform="translate(127.712 252.97)" fill="#c7d2e5"/>
        <rect id="Rectangle_9" data-name="Rectangle 9" width="39.881" height="3.805" transform="translate(136.09 261.105)" fill="#c7d2e5"/>
        <rect id="Rectangle_10" data-name="Rectangle 10" width="57.523" height="3.805" transform="translate(127.269 269.241)" fill="#c7d2e5"/>
        <rect id="Rectangle_11" data-name="Rectangle 11" width="22.569" height="3.805" transform="translate(127.269 277.377)" fill="#c7d2e5"/>
        <rect id="Rectangle_12" data-name="Rectangle 12" width="22.569" height="3.805" transform="translate(127.269 309.921)" fill="#c7d2e5"/>
        <rect id="Rectangle_13" data-name="Rectangle 13" width="41.632" height="3.805" transform="translate(136.09 285.513)" fill="#c7d2e5"/>
        <rect id="Rectangle_14" data-name="Rectangle 14" width="84.265" height="3.805" transform="translate(136.09 293.649)" fill="#c7d2e5"/>
        <rect id="Rectangle_15" data-name="Rectangle 15" width="57.523" height="3.805" transform="translate(136.09 301.785)" fill="#c7d2e5"/>
        <rect id="Rectangle_16" data-name="Rectangle 16" width="57.523" height="3.805" transform="translate(119.585 326.192)" fill="#c7d2e5"/>
        <rect id="Rectangle_17" data-name="Rectangle 17" width="57.523" height="3.805" transform="translate(119.585 358.736)" fill="#c7d2e5"/>
        <rect id="Rectangle_18" data-name="Rectangle 18" width="57.523" height="3.805" transform="translate(127.269 334.131)" fill="#c7d2e5"/>
        <rect id="Rectangle_19" data-name="Rectangle 19" width="57.523" height="3.805" transform="translate(136.09 342.464)" fill="#c7d2e5"/>
        <rect id="Rectangle_20" data-name="Rectangle 20" width="57.523" height="3.805" transform="translate(127.269 350.6)" fill="#c7d2e5"/>
      </g>
      <path id="Path_7" data-name="Path 7" d="M406.005,209.837H94a2.515,2.515,0,0,0-2.515,2.515v7.7H408.52v-7.7A2.515,2.515,0,0,0,406.005,209.837Z" fill="#c3cce0"/>
      <path id="Path_8" data-name="Path 8" d="M103.543,215.128a3.2,3.2,0,1,1-3.205-3.206A3.205,3.205,0,0,1,103.543,215.128Z" fill="#78869e"/>
      <path id="Path_9" data-name="Path 9" d="M91.48,214.946q.822,21.36,1.1,42.719c.226,14.239.286,28.478.315,42.718l-.075,21.359c-.079,7.12-.1,14.239-.236,21.359q-.277,21.358-1.106,42.718-.827-21.359-1.106-42.718c-.132-7.12-.157-14.239-.236-21.359l-.074-21.359c.028-14.24.088-28.479.314-42.718Q90.659,236.305,91.48,214.946Z" fill="#2f3847"/>
      <path id="Path_10" data-name="Path 10" d="M408.52,214.946q.822,20.521,1.1,41.042c.226,13.681.286,27.362.314,41.043l-.074,20.52c-.079,6.841-.1,13.681-.236,20.522q-.277,20.52-1.106,41.042-.826-20.521-1.106-41.042c-.132-6.841-.157-13.681-.236-20.522l-.075-20.52c.029-13.681.089-27.362.315-41.043Q407.7,235.468,408.52,214.946Z" fill="#252d38"/>
    </g>
    <g id="Group_8" data-name="Group 8">
      <g id="Group_5" data-name="Group 5">
        <g id="Group_4" data-name="Group 4">
          <rect id="Rectangle_21" data-name="Rectangle 21" width="147.511" height="150.855" rx="3.247" transform="translate(250 228.26)" fill="#fff"/>
          <path id="Path_11" data-name="Path 11" d="M394.263,228.26H253.247A3.247,3.247,0,0,0,250,231.507v6.543H397.511v-6.543A3.248,3.248,0,0,0,394.263,228.26Z" fill="#c3cce0"/>
        </g>
        <path id="Path_12" data-name="Path 12" d="M262.188,233.155a3.2,3.2,0,1,1-3.2-3.206A3.205,3.205,0,0,1,262.188,233.155Z" fill="#78869e"/>
      </g>
      <g id="Group_6" data-name="Group 6">
        <rect id="Rectangle_22" data-name="Rectangle 22" width="66.167" height="117.318" rx="3.754" transform="translate(290.672 245.829)" fill="#677291"/>
        <rect id="Rectangle_23" data-name="Rectangle 23" width="13.864" height="3.382" rx="1.582" transform="translate(316.823 358.262)" fill="#445066"/>
        <rect id="Rectangle_24" data-name="Rectangle 24" width="58.808" height="104.666" rx="2.361" transform="translate(294.352 252.104)" fill="#ebf2fc"/>
        <path id="Path_13" data-name="Path 13" d="M350.8,252.1H296.712a2.36,2.36,0,0,0-2.361,2.36v18.772h58.808V254.464A2.36,2.36,0,0,0,350.8,252.1Z" fill="#52ba81"/>
        <path id="Path_14" data-name="Path 14" d="M330.476,250H317.034a.9.9,0,0,1-.9-.9h0a.9.9,0,0,1,.9-.9h13.442a.9.9,0,0,1,.9.9h0A.9.9,0,0,1,330.476,250Z" fill="#445066"/>
        <circle id="Ellipse_1" data-name="Ellipse 1" cx="1.115" cy="1.115" r="1.115" transform="translate(296.853 248.199)" fill="#445066"/>
        <rect id="Rectangle_25" data-name="Rectangle 25" width="53.595" height="22.335" rx="1.52" transform="translate(296.853 275.857)" fill="#b0bcd1"/>
        <path id="Path_15" data-name="Path 15" d="M294.351,347.3v7.114a2.361,2.361,0,0,0,2.361,2.361H350.8a2.361,2.361,0,0,0,2.361-2.361V347.3Z" fill="#52ba81"/>
      </g>
      <g id="Group_7" data-name="Group 7">
        <path id="Path_16" data-name="Path 16" d="M341.369,301.527a1.356,1.356,0,1,1-1.356-1.355A1.356,1.356,0,0,1,341.369,301.527Z" fill="#677291"/>
        <path id="Path_17" data-name="Path 17" d="M345.342,301.527a1.356,1.356,0,1,1-1.356-1.355A1.356,1.356,0,0,1,345.342,301.527Z" fill="#677291"/>
        <path id="Path_18" data-name="Path 18" d="M349.314,301.527a1.355,1.355,0,1,1-1.356-1.355A1.356,1.356,0,0,1,349.314,301.527Z" fill="#677291"/>
      </g>
    </g>
    <g id="Group_10" data-name="Group 10">
      <path id="Path_19" data-name="Path 19" d="M40.055,333.554v25.714a1.646,1.646,0,0,0,1.646,1.646h62.026a1.65,1.65,0,0,1,.985.327l8.549,6.378a1.646,1.646,0,0,0,2.63-1.32V333.554a1.646,1.646,0,0,0-1.646-1.646H41.7A1.646,1.646,0,0,0,40.055,333.554Z" fill="#e84275"/>
      <path id="Path_20" data-name="Path 20" d="M111.2,103.984V129.7a1.645,1.645,0,0,0,1.646,1.646h44.569a1.649,1.649,0,0,1,.985.326l8.549,6.378a1.646,1.646,0,0,0,2.63-1.319V103.984a1.646,1.646,0,0,0-1.646-1.646H112.842A1.645,1.645,0,0,0,111.2,103.984Z" fill="#e84275"/>
      <path id="Path_21" data-name="Path 21" d="M406.915,149.154v25.714a1.646,1.646,0,0,1-1.646,1.646H360.7a1.638,1.638,0,0,0-.984.327l-8.55,6.378a1.646,1.646,0,0,1-2.63-1.32V149.154a1.646,1.646,0,0,1,1.646-1.646h55.088A1.646,1.646,0,0,1,406.915,149.154Z" fill="#e84275"/>
      <path id="Path_22" data-name="Path 22" d="M450.211,339.167v25.714a1.646,1.646,0,0,1-1.646,1.646h-44.57a1.644,1.644,0,0,0-.984.326l-8.55,6.378a1.646,1.646,0,0,1-2.63-1.319V339.167a1.646,1.646,0,0,1,1.646-1.646h55.088A1.646,1.646,0,0,1,450.211,339.167Z" fill="#e84275"/>
      <g id="Group_9" data-name="Group 9">
        <text id="php" transform="translate(121.043 124.007)" fill="#a8265b" font-size="22.924" font-family="SegoeUI, Segoe UI"><tspan x="0" y="0">php</tspan></text>
        <text id="java" transform="translate(57.991 352.28)" fill="#a8265b" font-size="19.511" font-family="SegoeUI, Segoe UI"><tspan x="0" y="0">java</tspan></text>
        <text id="Js" transform="translate(368.312 170.24)" fill="#a8265b" font-size="22.924" font-family="SegoeUI, Segoe UI"><tspan x="0" y="0">Js</tspan></text>
        <text id="CSS" transform="translate(402.291 360.648)" fill="#a8265b" font-size="22.924" font-family="SegoeUI, Segoe UI"><tspan x="0" y="0">CSS</tspan></text>
      </g>
      <text id="php-2" data-name="php" transform="translate(120.585 123.007)" fill="#fff" font-size="22.924" font-family="SegoeUI, Segoe UI"><tspan x="0" y="0">php</tspan></text>
      <text id="java-2" data-name="java" transform="translate(57.533 351.28)" fill="#fff" font-size="19.511" font-family="SegoeUI, Segoe UI"><tspan x="0" y="0">java</tspan></text>
      <text id="Js-2" data-name="Js" transform="translate(367.853 169.24)" fill="#fff" font-size="22.924" font-family="SegoeUI, Segoe UI"><tspan x="0" y="0">Js</tspan></text>
      <text id="CSS-2" data-name="CSS" transform="translate(401.833 359.648)" fill="#fff" font-size="22.924" font-family="SegoeUI, Segoe UI"><tspan x="0" y="0">CSS</tspan></text>
      <text id="HTML" transform="translate(50.926 173.123)" fill="#979cd3" font-size="27.914" font-family="SegoeUI, Segoe UI"><tspan x="0" y="0">HTML</tspan></text>
    </g>
    <g id="Group_18" data-name="Group 18">
      <g id="Group_11" data-name="Group 11">
        <rect id="Rectangle_26" data-name="Rectangle 26" width="85.731" height="34.816" rx="4.371" transform="translate(260.726 263.599) rotate(11.777)" fill="#a576ff"/>
        <rect id="Rectangle_27" data-name="Rectangle 27" width="53.061" height="6.597" transform="translate(282.068 273.983) rotate(12.153)" fill="#d2c0ff"/>
        <rect id="Rectangle_28" data-name="Rectangle 28" width="41.458" height="2.49" transform="matrix(0.978, 0.211, -0.211, 0.978, 280.091, 283.162)" fill="#d2c0ff"/>
        <rect id="Rectangle_29" data-name="Rectangle 29" width="47.586" height="2.49" transform="matrix(0.978, 0.211, -0.211, 0.978, 279.132, 287.613)" fill="#d2c0ff"/>
        <circle id="Ellipse_2" data-name="Ellipse 2" cx="5.891" cy="5.891" r="5.891" transform="translate(264.071 270.196)" fill="#ddd2ff"/>
      </g>
      <g id="Group_14" data-name="Group 14">
        <path id="Path_23" data-name="Path 23" d="M291.833,270.248a27.785,27.785,0,0,1,1.764,6.741c.124,2.613-3.1,13.564,4.859,14.808s16.3-10.826,16.917-14.684-7.1-18.111-7.1-18.111l-14.618-2.266L286.4,268.952Z" fill="#f4d3c9"/>
        <g id="Group_13" data-name="Group 13">
          <g id="Group_12" data-name="Group 12">
            <path id="Path_24" data-name="Path 24" d="M314.46,270.139c.009.018.017.036.027.054l.013.024Z" fill="#a56659"/>
            <path id="Path_25" data-name="Path 25" d="M314.487,270.193c-1.33-2.279-2.6-4.584-3.985-6.84.778,2.538,1.665,5.027,2.5,7.541l.04.079c.158.456.433.979.6,1.5a11.32,11.32,0,0,1,.4,1.614,10.378,10.378,0,0,1,.015,3.295,13.681,13.681,0,0,1-2.945,6.007,27.7,27.7,0,0,1-2.452,2.853,18.559,18.559,0,0,0,1.888-7.23,5.537,5.537,0,0,0,1.221-2.526,5.675,5.675,0,0,0-1.442-2.678,6.512,6.512,0,0,0-.749-.773l-.927-.81a15.319,15.319,0,0,1,2.118,4.244,5.263,5.263,0,0,1-1.114,2.061l-.115.143.005.183c.09,3.3-1.936,7.415-2.912,9.2-.116.091-.224.192-.341.28a14.16,14.16,0,0,1-2.9,1.75,9.183,9.183,0,0,1-3.163.857l-.033,0a18.9,18.9,0,0,0,3.967-6.8,19.242,19.242,0,0,0,1.189-5.678,3.612,3.612,0,0,0,1.2-2.384,4.38,4.38,0,0,0-.084-.806,6.055,6.055,0,0,0-1.929-3.328l-.182-.164a22.418,22.418,0,0,1,1.195,4.3,2.824,2.824,0,0,1-1.035,1.793l-.226.2.053.289c.009.048.2,1.217-1.135,5.48a17.6,17.6,0,0,1-4.4,7.079,8.227,8.227,0,0,1-1.719-.387,3.841,3.841,0,0,1-.9-.513c1.365-1.691,4.958-6.649,4.839-11.913a3.519,3.519,0,0,0,1.14-3.12,3.572,3.572,0,0,0-1.643-2.354l-1.651-.71c.013.007,2.021,2.033,2.321,3.3.282,1.183-.985,2.288-1,2.3l-.185.16.01.242c.211,4.883-3.229,9.721-4.568,11.411a4.88,4.88,0,0,1-.539-.772,12.992,12.992,0,0,1-1.051-6.542c.053-1.159.176-2.32.339-3.489l.125-.886a9.16,9.16,0,0,0,.117-1.008,5.927,5.927,0,0,0-.432-1.943,71.839,71.839,0,0,0-2.758-6.7c.433,2.366.917,4.73,1.265,7.061l.193,1.583a4.257,4.257,0,0,1-.069.773l-.126.89c-.166,1.2-.3,2.417-.353,3.646a14.52,14.52,0,0,0,1.262,7.442,5.954,5.954,0,0,0,3.036,2.73,8.879,8.879,0,0,0,3.909.514,10.86,10.86,0,0,0,3.72-1,15.893,15.893,0,0,0,3.227-1.943,26.359,26.359,0,0,0,5.157-5.289,24.476,24.476,0,0,0,2.022-3.115,11.342,11.342,0,0,0,1.24-3.64A11.875,11.875,0,0,0,314.487,270.193Z" fill="#a56659"/>
          </g>
          <path id="Path_26" data-name="Path 26" d="M291.727,259.977l-5.324,8.975,1.394.332Z" fill="#a56659"/>
        </g>
      </g>
      <g id="Group_15" data-name="Group 15">
        <path id="Path_27" data-name="Path 27" d="M317.55,192.912s-1.785-13.481-13.674-32.051c-16.334-25.511-43.6-43.5-76.316-31.057s-37.4,63.108-37.4,63.108h24.089l2.7-9.512,3.8,9.512H283.72l-2.787-17.779,9.186,17.779Z" fill="#9fcc75"/>
        <path id="Path_28" data-name="Path 28" d="M195.732,192.912c2.641-28.856,16.618-52.946,16.766-53.2-19.183,19.122-22.333,53.2-22.333,53.2Z" fill="#c7fc8d"/>
        <path id="Path_29" data-name="Path 29" d="M287.141,186.327s6.85,15.967,7.412,18.5-4.881,51.952-4.881,51.952,8.533,6.667,21.739,4.33c0,0,7.867-47.01,8.148-56s-5.587-24.559-5.587-24.559Z" fill="#9fcc75"/>
        <path id="Path_30" data-name="Path 30" d="M276.538,171.843c-.325-.683-1.334-9.837-1.334-9.837s-1.952,9.056-1.306,10.422a25.366,25.366,0,0,0,3.062,4s-4.586,10.244-7.336,12.293c-1.711,1.274-9.585,3.039-15.294,4.191h29.39l-2.787-17.779S276.862,172.526,276.538,171.843Z" fill="#86ad5c"/>
        <path id="Path_31" data-name="Path 31" d="M317.022,189.99a95.138,95.138,0,0,0-3.05-9.445h0c-5.4-14.714-18.524-34.457-32.554-43.827.544.9,20.57,21.4,28.627,43.806,2.408,6.7,5.364,18.607,4.583,29.828l-7.491,43.326-8-1.315,7.829,4.373.433,4.808c.544-.03,2.5-.228,3.043-.3l2.908-12.7C315.454,226.166,323.755,211.6,317.022,189.99Z" fill="#c7fc8d"/>
        <path id="Path_32" data-name="Path 32" d="M319.691,203.859a45.3,45.3,0,0,0-.744-5.546,50.881,50.881,0,0,0-1.4-5.4,50.53,50.53,0,0,1,1.048,5.46,48.414,48.414,0,0,1,.465,5.519,44.932,44.932,0,0,1-.185,5.518,33.675,33.675,0,0,1-.906,5.387l-.007.027-.006.035-3.218,18.9c-1.052,6.29-2.153,12.572-3.151,18.87a33.657,33.657,0,0,1-19.6-4.407c1.455-12.535,2.923-25.047,3.65-37.708a42.058,42.058,0,0,0,.015-4.938,8.986,8.986,0,0,0-.6-2.555c-.283-.776-.576-1.542-.9-2.28-1.258-2.98-2.639-5.866-4.036-8.749-1.765-3.61-4.75-9.384-6.729-13.186a34.2,34.2,0,0,1-2.982-8.073l-.045-.192a24.459,24.459,0,0,1-.78-4.076,33.023,33.023,0,0,1-.347-4.682l-.39-5.68-.828,5.359a28.454,28.454,0,0,0,.179,4.7,29.735,29.735,0,0,0,.934,4.633l1.018,3.437-3.616-2.386,4.593,4.851c2.525,5.322,5.084,10.63,7.5,15.992,1.306,2.9,2.6,5.823,3.742,8.764.295.736.551,1.47.795,2.2a7.037,7.037,0,0,1,.432,2.1c.065,1.443-.054,3.072-.137,4.636-.43,6.328-1.138,12.679-1.838,19.017s-1.445,12.683-2.222,19.019l-.579,4.753-.144,1.188-.073.6a2.667,2.667,0,0,0,.663,2.1,5.047,5.047,0,0,0,.607.535c.339.266.68.524,1.032.761a24.876,24.876,0,0,0,9.254,3.835,29.881,29.881,0,0,0,9.925.287l.308-.035a3.549,3.549,0,0,0,.4-.059,2.506,2.506,0,0,0,1.706-1.373,2.918,2.918,0,0,0,.244-.906l.348-2.371.695-4.74c.948-6.318,1.792-12.652,2.686-18.978l2.624-18.988-.013.062a34.545,34.545,0,0,0,.68-5.624A45.693,45.693,0,0,0,319.691,203.859Zm-9.256,55.9c-.043.273-.036.215-.05.249a.15.15,0,0,1-.049.054.118.118,0,0,1-.05.022l-.483.047a28.927,28.927,0,0,1-9.141-.345,22.435,22.435,0,0,1-8.316-3.484,7.382,7.382,0,0,1-1.222-.968.16.16,0,0,1,0-.059l.075-.59.151-1.19.381-3.112a35.01,35.01,0,0,0,17.21,4.345c.755,0,1.534-.032,2.326-.08l-.445,2.746Z" fill="#287051"/>
        <path id="Path_33" data-name="Path 33" d="M240.293,192.912s-8.267-1.472-8.616-1.705-4.657-6.4-5.938-7.181-15.485-8.886-15.485-8.886l5.365,6.615-9.327-2.142,4.638,5.052-2.245,8.247h5.569l2.855-9.121,3.645,9.121Z" fill="#86ad5c"/>
        <path id="Path_34" data-name="Path 34" d="M220.754,192.912l-3.645-9.121-6.855-8.651,7.674,7.51a4.244,4.244,0,0,1,.907,1.3l4.02,8.963Z" fill="#287051"/>
      </g>
      <g id="Group_16" data-name="Group 16">
        <path id="Path_35" data-name="Path 35" d="M230.459,79.1s6.854-6.983,12.07-6.249-3.577,4.758-3.577,4.758,11.576-3.173,13.909-1.661-4.968,4.046-4.968,4.046,18.4-.262,26.005,21.088c8.673,24.358-6.8,48.871-6.8,48.871l-44.181,3.18s-13.021-12.194-18.832-33.8,10.729-32.485,15.944-33.379c0,0-7.136.149-6.623-2.086s11.4-1.535,11.4-1.535,2.757-8.062,6.848-9.482C234.607,71.825,230.459,79.1,230.459,79.1Z" fill="#995f52"/>
        <path id="Path_36" data-name="Path 36" d="M217.873,122.325c-.7,7.819-.222,16.2,3.649,27.292a68.889,68.889,0,0,0,8.686,16.217c9.557,13.7,19.249,15.57,24.558,14.431,6.111-1.311,19.734-12.7,14.858-46.994,0,0-3.82-37.279-32.533-30.819C221.642,105.927,218.742,112.6,217.873,122.325Z" fill="#f4d3c9"/>
        <path id="Path_37" data-name="Path 37" d="M270.784,143.474s.684-11.752,4.462-13.48,3.671,8.637.972,16.3-6.594,4.534-6.594,4.534Z" fill="#f4d3c9"/>
        <path id="Path_38" data-name="Path 38" d="M270.784,143.474s.684-11.752,4.462-13.48,3.671,8.637.972,16.3-6.594,4.534-6.594,4.534Z" fill="#f4d3c9"/>
        <path id="Path_39" data-name="Path 39" d="M273.029,123.617l-3.406-1.348c.009-3.995-.316-8.048-.316-8.048s-4.917-21.832-25.191-22.732c-19.893-.884-34.6,14.887-28,33.142l-2.078-3.191-3.108,1.619v7.8l11.943,21.735-3.833-22.359a15.016,15.016,0,0,0,8.14-6.687,11.49,11.49,0,0,0,7.241-1.673s-.225,4.952,4.5,3.826S249,113.546,249,113.546s-.656,12.829,3.861,11.029,5.642-11.254,5.642-11.254,6,14.34,8.925,16.413l2.952,16.3Z" fill="#995f52"/>
        <path id="Path_40" data-name="Path 40" d="M275.334,106.035a44.576,44.576,0,0,0-1.436-4.953c-7.6-21.35-26.005-21.088-26.005-21.088s7.3-2.534,4.968-4.046-13.909,1.661-13.909,1.661,8.792-4.023,3.577-4.758-12.07,6.249-12.07,6.249,4.148-7.275,1.192-6.249c-4.091,1.42-6.848,9.482-6.848,9.482s-10.885-.7-11.4,1.535,6.623,2.086,6.623,2.086c-5.215.894-21.756,11.772-15.944,33.379.336,1.251.7,2.467,1.08,3.654.314-9.148,3.033-26.493,18.7-31.534,0,0-5.8-1.292-4.623-2.5s8.315,1.212,8.315,1.212,4.374-9.7,6.6-10.3-1.414,5.454-1.414,5.454,6.556-6.347,9.237-5.5-3.985,6.1-3.985,6.1S263.688,79.662,275.334,106.035Z" fill="#e28171"/>
        <path id="Path_41" data-name="Path 41" d="M270.784,143.473s.655-11.221,4.213-13.341a55.8,55.8,0,0,0,1.467-10.516c-3.651,1.842-5.807-4.331-5.807-4.331s-1.051,5.191-2.559,5.2-9.2-6.712-9.2-6.712l.03.62c.431.993,5.832,13.343,8.5,15.345l2.935,16.407Z" fill="#5b2e28" opacity="0.53"/>
        <path id="Path_42" data-name="Path 42" d="M206.292,126.263s4.007,5.828,5.99,5.024a7.814,7.814,0,0,0,2.478-1.332,4.992,4.992,0,0,0,4.279.279l3.877,22.9s-4.45-10.746-9.029-11.5C213.887,141.628,208.5,133.194,206.292,126.263Z" fill="#5b2e28" opacity="0.53"/>
        <path id="Path_43" data-name="Path 43" d="M222.916,153.133s-5.329-12.832-10.284-11.449c-6,1.674,5.022,22.043,14.928,18.835Z" fill="#f4d3c9"/>
        <path id="Path_44" data-name="Path 44" d="M231.993,145.439s3.517-1.891,6.428,0C238.421,145.439,235.268,139.62,231.993,145.439Z" fill="#c18678"/>
        <path id="Path_45" data-name="Path 45" d="M260.067,138.376s-3.991.128-5.56,3.224C254.507,141.6,254.316,134.984,260.067,138.376Z" fill="#c18678"/>
        <path id="Path_46" data-name="Path 46" d="M251.069,163l-5.159-16.855-4.272-4.562a.316.316,0,0,0-.534.3l3.027,10.712.177,4S248.607,164.52,251.069,163Z" fill="#c18678" opacity="0.64"/>
        <path id="Path_47" data-name="Path 47" d="M244.308,156.591s4.189,8.376,6.785,7.539,2.765-9.64,2.765-9.64-2.011,7.127-3.518,7.294S244.308,156.591,244.308,156.591Z" fill="#a56659"/>
        <path id="Path_48" data-name="Path 48" d="M248.19,169.24s7.384,2.192,10.9-7.275h1.728" fill="none" stroke="#824d46" stroke-miterlimit="10" stroke-width="1.701"/>
        <path id="Path_49" data-name="Path 49" d="M275.334,136.711s-2.908,4.03-2.809,5.627a11.032,11.032,0,0,0,1.4,3.8A77.341,77.341,0,0,1,275.334,136.711Z" fill="#c18678"/>
        <path id="Path_50" data-name="Path 50" d="M216.173,149.487s4.589,1.907,5.343,3.318a11.041,11.041,0,0,1,.8,3.973A77.471,77.471,0,0,0,216.173,149.487Z" fill="#c18678"/>
        <path id="Path_51" data-name="Path 51" d="M225.206,141.167l11-4.009a.977.977,0,0,0,.34-1.631,8.528,8.528,0,0,0-8.048-1.958c-4.4,1.041-4.748,4.776-4.6,6.757A.977.977,0,0,0,225.206,141.167Z" fill="#63342d"/>
        <path id="Path_52" data-name="Path 52" d="M251.542,132.8l12.472-.6a.981.981,0,0,0,.867-1.352c-.622-1.458-2.263-3.678-6.539-4.075a7.658,7.658,0,0,0-7.722,4.588A.986.986,0,0,0,251.542,132.8Z" fill="#63342d"/>
        <path id="Path_53" data-name="Path 53" d="M237.818,155.5h-4.875S235.463,153.133,237.818,155.5Z" fill="#a56659"/>
        <path id="Path_54" data-name="Path 54" d="M259.7,150.793l4.673-2.243S260.734,146.993,259.7,150.793Z" fill="#a56659"/>
        <path id="Path_55" data-name="Path 55" d="M234.137,151.677c.754,2.53,2.462,4.255,3.814,3.851s1.837-2.781,1.082-5.311-2.462-4.254-3.814-3.851S233.382,149.147,234.137,151.677Z" fill="#3f302e"/>
        <path id="Path_56" data-name="Path 56" d="M256.325,146.711c.524,2.532,2.037,4.36,3.379,4.082s2.007-2.555,1.483-5.087-2.037-4.36-3.379-4.082S255.8,144.179,256.325,146.711Z" fill="#3f302e"/>
        <path id="Path_57" data-name="Path 57" d="M258.517,106.378a27.758,27.758,0,0,1-.794,8.152,20.363,20.363,0,0,1-2.978,7.256,3.4,3.4,0,0,1-2.412,1.6c-.28-.018-.455-.137-.733-.5a5.075,5.075,0,0,1-.628-1.488,26.465,26.465,0,0,1-.56-7.765l.4-7.847-3.1,7.194a32.128,32.128,0,0,1-4.084,7.02,20.219,20.219,0,0,1-2.691,2.946,9.416,9.416,0,0,1-3.134,1.954c-1.118.305-1.706.107-2.092-1a7.362,7.362,0,0,1-.007-3.754,18.185,18.185,0,0,1,4-7.205,16.059,16.059,0,0,0-5.342,6.795,5.236,5.236,0,0,0-.452,1.687,13.3,13.3,0,0,1-4.633,1.65,5.183,5.183,0,0,1-2.324-.142,1.555,1.555,0,0,1-.994-1.467,3.806,3.806,0,0,1,.714-2.058,18.72,18.72,0,0,1,1.534-2.056c1.139-1.323,2.381-2.6,3.634-3.9a20.555,20.555,0,0,0-4.43,3.135,14.016,14.016,0,0,0-1.856,2.083,4.884,4.884,0,0,0-1.008,2.911,3.1,3.1,0,0,0,.558,1.588,2.866,2.866,0,0,0,1.4,1.025l-.69-.346a13.6,13.6,0,0,1-4,4.2,12.107,12.107,0,0,1-2.99,1.512,4.76,4.76,0,0,1-3.035.141,1.414,1.414,0,0,1-.94-.678,2.033,2.033,0,0,1-.021-1.276,10.964,10.964,0,0,1,1.413-3,66.088,66.088,0,0,1,4.189-5.656,26.819,26.819,0,0,0-5.1,5.027,10.636,10.636,0,0,0-1.8,3.286,3.246,3.246,0,0,0,.061,2.195,2.779,2.779,0,0,0,1.76,1.445,6,6,0,0,0,3.913-.224,11.567,11.567,0,0,0,3.2-1.885,20.912,20.912,0,0,0,4.257-4.706,5.827,5.827,0,0,0,2.753-.075,15.212,15.212,0,0,0,4.344-1.912,8.418,8.418,0,0,0,.086,2.123,3.481,3.481,0,0,0,1.6,2.36,4.012,4.012,0,0,0,2.823.322,10.385,10.385,0,0,0,4.208-2.2,22.568,22.568,0,0,0,3.2-3.175,29.427,29.427,0,0,0,2.032-2.843,16.316,16.316,0,0,0,.667,3.341,7.482,7.482,0,0,0,1.127,2.254,4.057,4.057,0,0,0,1.147,1.014,3.212,3.212,0,0,0,1.614.416,4.311,4.311,0,0,0,2.628-.989,7.486,7.486,0,0,0,1.612-1.832,19.657,19.657,0,0,0,2.535-8.284A22.234,22.234,0,0,0,258.517,106.378Z" fill="#4c2521"/>
        <path id="Path_58" data-name="Path 58" d="M220.387,100.718s-7.986,8.119-7.906,11.953,11.6-4.34,11.6-4.34-9.084,4.4-8.7,2.3C215.867,108.037,220.387,100.718,220.387,100.718Z" fill="#5b2e28" opacity="0.71"/>
        <path id="Path_59" data-name="Path 59" d="M233.43,100.47s-3.117,7.889-.987,9.351,10.371-10.182,10.371-10.182-8.146,8.158-9.162,7.356S233.43,100.47,233.43,100.47Z" fill="#5b2e28" opacity="0.71"/>
        <path id="Path_60" data-name="Path 60" d="M234.53,150.113c.192.928.728,1.6,1.2,1.5s.7-.929.5-1.857-.729-1.6-1.2-1.505S234.338,149.185,234.53,150.113Z" fill="#fff"/>
        <path id="Path_61" data-name="Path 61" d="M256.855,145.235c.135.938.63,1.644,1.1,1.575s.751-.884.616-1.822-.629-1.644-1.1-1.575S256.72,144.3,256.855,145.235Z" fill="#fff"/>
        <path id="Path_62" data-name="Path 62" d="M226.972,160.861l-3.1-5.678,1.552,5.678Z" fill="#c18678" opacity="0.66"/>
        <path id="Path_63" data-name="Path 63" d="M270.532,151.295v-4.542l1.541,4.709A1.834,1.834,0,0,1,270.532,151.295Z" fill="#c18678" opacity="0.66"/>
        <path id="Path_64" data-name="Path 64" d="M252.316,177.874c-9.657,1.073-23.894-15.027-24.63-15.868.776,1.241,1.6,2.512,2.522,3.828,9.557,13.7,19.249,15.57,24.558,14.431,3.316-.712,8.839-4.4,12.423-13.1C267.047,167.439,262.089,176.788,252.316,177.874Z" fill="#fff3d7"/>
        <path id="Path_65" data-name="Path 65" d="M217.916,144.523c-1.628-1.959-3.48-3.342-5.284-2.839-2.807.783-1.887,5.66.9,10.3l.713,1.114.019.028c-.036-.082-3.165-7.1-1.415-8.979S217.916,144.523,217.916,144.523Z" fill="#fff3d7"/>
        <path id="Path_66" data-name="Path 66" d="M275.246,129.994a5.792,5.792,0,0,0-2.46,3.24c.263-.237,2.38-2.1,3.678-1.664.874.292,1.324,4.01,1.538,6.721C278.556,133.072,277.767,128.842,275.246,129.994Z" fill="#fff3d7"/>
      </g>
      <g id="Group_17" data-name="Group 17">
        <path id="Path_67" data-name="Path 67" d="M178.359,190.322a29.3,29.3,0,0,1,21.032-4.592,4.076,4.076,0,0,1,3.528,3.815c.14,4.709.9,10.913-.435,13.626-1.849,3.765-11.994,7.362-15.447,6.18S175.646,191.956,178.359,190.322Z" fill="#f4d3c9"/>
        <path id="Path_68" data-name="Path 68" d="M202.84,188.889c-.145,2.308-.158,5.89-.5,8.138a27.609,27.609,0,0,1-.332,3.347,9.354,9.354,0,0,1-.942,3.036,7.175,7.175,0,0,1-.565.807c-.106-.795-.222-1.583-.351-2.375q-.366-2.22-.855-4.408a57.9,57.9,0,0,0-2.561-8.545,57.281,57.281,0,0,1,1.158,8.744q.13,2.194.139,4.387c0,1.453-.028,2.936-.119,4.341h.18a16.662,16.662,0,0,1-1.779,1.02l-.394-.165-5.237-15.543a.12.12,0,0,0-.232.06l3.036,16.8a3.306,3.306,0,0,1-.991.361l-.719.119a16.46,16.46,0,0,1-2.483-3.959c-.705-1.465-1.32-3.008-2.047-4.477s-1.416-2.968-2-4.512c-.611-1.536-1.1-3.117-1.572-4.714.236,1.644.5,3.295.894,4.922.364,1.636.841,3.247,1.367,4.848a49.818,49.818,0,0,0,1.847,4.724c.441.972.894,1.914,1.4,2.859a.274.274,0,0,1-.264.406,4.271,4.271,0,0,1-2.025-.6,8.4,8.4,0,0,1-2.176-2.269,52.321,52.321,0,0,1-3.38-5.875,31.279,31.279,0,0,1-2.421-6.266c-.184-.525-.342-1.059-.479-1.607l-.19-.8a1.2,1.2,0,0,1,.052-.644,3.041,3.041,0,0,1,.96-1.222,7.254,7.254,0,0,1,1.424-.939,4.855,4.855,0,0,0-3.048,1.838,2.027,2.027,0,0,0-.291,1.024l.033.9c.03.582.086,1.172.17,1.757,0,.012,0,.025.007.038A31.451,31.451,0,0,0,180.074,201a53.558,53.558,0,0,0,3.491,6.062,9.69,9.69,0,0,0,2.585,2.653,5.561,5.561,0,0,0,1.838.713,8.805,8.805,0,0,0,1.871.119,17.692,17.692,0,0,0,6.9-1.811,15.924,15.924,0,0,0,3.681-2.4l.3,0c-.009-.088-.021-.171-.03-.258a9.559,9.559,0,0,0,1.58-1.966,10.664,10.664,0,0,0,1.109-3.505c.194-1.165.289-2.329.367-3.487a.206.206,0,0,0,0-.035A69.446,69.446,0,0,0,202.84,188.889Z" fill="#a56659"/>
      </g>
    </g>
  </g>
</svg>
