<?xml version="1.0" encoding="UTF-8" standalone="no"?>
<!-- Generator: Adobe Illustrator 22.0.0, SVG Export Plug-In . SVG Version: 6.00 Build 0)  -->

<svg
   xmlns:dc="http://purl.org/dc/elements/1.1/"
   xmlns:cc="http://creativecommons.org/ns#"
   xmlns:rdf="http://www.w3.org/1999/02/22-rdf-syntax-ns#"
   xmlns:svg="http://www.w3.org/2000/svg"
   xmlns="http://www.w3.org/2000/svg"
   xmlns:xlink="http://www.w3.org/1999/xlink"
   xmlns:sodipodi="http://sodipodi.sourceforge.net/DTD/sodipodi-0.dtd"
   xmlns:inkscape="http://www.inkscape.org/namespaces/inkscape"
   version="1.1"
   id="_x2018_ëîé_x5F_1"
   x="0px"
   y="0px"
   viewBox="0 0 979.20001 979.20001"
   xml:space="preserve"
   sodipodi:docname="18326264 [Converted].svg"
   width="979.20001"
   height="979.20001"
   inkscape:version="0.92.4 (5da689c313, 2019-01-14)"><metadata
   id="metadata113"><rdf:RDF><cc:Work
       rdf:about=""><dc:format>image/svg+xml</dc:format><dc:type
         rdf:resource="http://purl.org/dc/dcmitype/StillImage" /><dc:title></dc:title></cc:Work></rdf:RDF></metadata><defs
   id="defs111" /><sodipodi:namedview
   pagecolor="#ffffff"
   bordercolor="#666666"
   borderopacity="1"
   objecttolerance="10"
   gridtolerance="10"
   guidetolerance="10"
   inkscape:pageopacity="0"
   inkscape:pageshadow="2"
   inkscape:window-width="1360"
   inkscape:window-height="705"
   id="namedview109"
   showgrid="false"
   fit-margin-top="5"
   fit-margin-left="5"
   fit-margin-right="5"
   fit-margin-bottom="5"
   inkscape:zoom="0.42074074"
   inkscape:cx="625.64721"
   inkscape:cy="543.50552"
   inkscape:window-x="-8"
   inkscape:window-y="-8"
   inkscape:window-maximized="1"
   inkscape:current-layer="g76" />
<style
   type="text/css"
   id="style2">
	.st0{fill:#E3E3E3;}
	.st1{fill-rule:evenodd;clip-rule:evenodd;fill:#FFFFFF;}
	.st2{fill:#FFFFFF;}
	.st3{fill:#EEEFF1;}
	.st4{fill:#D1D3D4;}
	.st5{fill:#353849;}
	.st6{fill:#51DFFF;}
	.st7{fill-rule:evenodd;clip-rule:evenodd;fill:#353849;}
</style>
<g
   id="g24"
   transform="translate(-349.80002,-768.89999)">
	<g
   id="g12">
		<g
   id="g10">
			<defs
   id="defs5">
				<circle
   id="SVGID_1_"
   cx="3551.1001"
   cy="938.79999"
   r="121.1" />
			</defs>
			<clipPath
   id="SVGID_2_">
				<use
   xlink:href="#SVGID_1_"
   style="overflow:visible"
   id="use7"
   x="0"
   y="0"
   width="100%"
   height="100%" />
			</clipPath>
		</g>
	</g>
	<g
   id="g22">
		<g
   id="g20">
			<defs
   id="defs15">
				<circle
   id="SVGID_3_"
   cx="3089.6001"
   cy="832.20001"
   r="121.1" />
			</defs>
			<clipPath
   id="SVGID_4_">
				<use
   xlink:href="#SVGID_3_"
   style="overflow:visible"
   id="use17"
   x="0"
   y="0"
   width="100%"
   height="100%" />
			</clipPath>
		</g>
	</g>
</g>
<g
   id="g94"
   transform="translate(-349.80002,-768.89999)">
	<g
   id="g92">
		
		<g
   id="g90">
			<g
   id="g76">
				<circle
   class="st1"
   cx="839.40002"
   cy="1258.5"
   r="484.60001"
   id="circle30"
   style="clip-rule:evenodd;fill:#fdbd17;fill-opacity:1;fill-rule:evenodd" />
				<g
   id="g74">
					<g
   id="g36">
						<path
   class="st2"
   d="m 839.4,1513.9 c -107,0 -198.1,70.9 -232.2,170 68.9,37.7 148.1,59.2 232.2,59.2 84.1,0 163.2,-21.4 232.2,-59.2 -34.1,-99.1 -125.2,-170 -232.2,-170 z"
   id="path32"
   inkscape:connector-curvature="0"
   style="fill:#ffffff" />
						<path
   class="st3"
   d="m 839.4,1489.8 c -87.4,0 -161.2,91.6 -184.4,216.9 56.9,23.4 119.1,36.4 184.4,36.4 65.3,0 127.6,-12.9 184.4,-36.4 -23.2,-125.3 -97,-216.9 -184.4,-216.9 z"
   id="path34"
   inkscape:connector-curvature="0"
   style="fill:#eeeff1" />
					</g>
					<ellipse
   class="st4"
   cx="839.40002"
   cy="1512.9"
   rx="123.6"
   ry="47.400002"
   id="ellipse38"
   style="fill:#d1d3d4" />
					<rect
   x="561.20001"
   y="1013.2"
   class="st3"
   width="19.799999"
   height="227.89999"
   id="rect40"
   style="fill:#eeeff1" />
					<rect
   x="1097.9"
   y="1013.2"
   class="st3"
   width="19.799999"
   height="227.89999"
   id="rect42"
   style="fill:#eeeff1" />
					<g
   id="g48">
						<circle
   class="st4"
   cx="596.70001"
   cy="1288.6"
   r="79.699997"
   id="circle44"
   style="fill:#d1d3d4" />
						
							<circle
   transform="matrix(0.9877,-0.1563,0.1563,0.9877,-188.1078,184.971)"
   class="st4"
   cx="1082.1"
   cy="1288.6"
   id="ellipse46"
   r="79.699997"
   style="fill:#d1d3d4" />
					</g>
					<path
   class="st4"
   d="m 834.9,1064.1 c -143.4,2.4 -257.1,122.4 -257.1,265.9 v 111.5 c 0,39.5 32,71.6 71.6,71.6 h 380 c 39.5,0 71.6,-32 71.6,-71.6 v -115.8 c 0,-146 -119.5,-264 -266.1,-261.6 z"
   id="path50"
   inkscape:connector-curvature="0"
   style="fill:#d1d3d4" />
					<path
   class="st3"
   d="m 834.9,1036.1 c -143.4,2.4 -257.1,122.4 -257.1,265.9 v 129.5 c 0,29.6 24,53.6 53.6,53.6 h 416 c 29.6,0 53.6,-24 53.6,-53.6 v -133.8 c 0,-146 -119.5,-264.1 -266.1,-261.6 z"
   id="path52"
   inkscape:connector-curvature="0"
   style="fill:#eeeff1" />
					<path
   class="st4"
   d="M 835.9,1084.1 C 724.4,1086 636,1180.3 636,1293.1 v 101.8 c 0,23.3 18.6,42.1 41.6,42.1 H 1001 c 23,0 41.6,-18.9 41.6,-42.1 v -105.2 c 0.2,-114.8 -92.8,-207.6 -206.7,-205.6 z"
   id="path54"
   inkscape:connector-curvature="0"
   style="fill:#d1d3d4" />
					<path
   class="st5"
   d="M 835.9,1101 C 724.4,1102.9 636,1197.2 636,1310 v 84.9 c 0,23.3 18.6,42.1 41.6,42.1 H 1001 c 23,0 41.6,-18.9 41.6,-42.1 v -88.2 c 0.2,-114.8 -92.8,-207.6 -206.7,-205.7 z"
   id="path56"
   inkscape:connector-curvature="0"
   style="fill:#353849" />
					<g
   id="g66">
						<g
   id="g60">
							
								<circle
   transform="matrix(0.9997,-0.02573063,0.02573063,0.9997,-31.8836,19.7066)"
   class="st6"
   cx="749.79999"
   cy="1248.8"
   id="ellipse58"
   r="24.4"
   style="fill:#51dfff" />
						</g>
						<g
   id="g64">
							<circle
   class="st6"
   cx="929"
   cy="1248.8"
   r="24.4"
   id="circle62"
   style="fill:#51dfff" />
						</g>
					</g>
					<path
   class="st6"
   d="m 898.9,1309.8 h -119 c -3.9,0 -6.9,3.4 -6.5,7.3 3.6,33.2 31.8,59.1 66,59.1 34.2,0 62.4,-25.9 66,-59.1 0.5,-3.9 -2.6,-7.3 -6.5,-7.3 z"
   id="path68"
   inkscape:connector-curvature="0"
   style="fill:#51dfff" />
					
						<circle
   transform="matrix(0.9547,-0.2976,0.2976,0.9547,-271.6024,215.258)"
   class="st4"
   cx="571.09998"
   cy="999.5"
   id="ellipse70"
   r="28.1"
   style="fill:#d1d3d4" />
					
						<circle
   transform="matrix(0.8536,-0.5209,0.5209,0.8536,-358.506,723.3726)"
   class="st4"
   cx="1107.8"
   cy="999.5"
   id="ellipse72"
   r="28.1"
   style="fill:#d1d3d4" />
				</g>
			</g>
			
		</g>
	</g>
</g>
<g
   id="g106"
   transform="translate(-349.80002,-768.89999)">
	<g
   id="g104">
		<g
   id="g102">
			<defs
   id="defs97">
				<circle
   id="SVGID_5_"
   cx="3551.1001"
   cy="938.79999"
   r="121.1" />
			</defs>
			<clipPath
   id="SVGID_6_">
				<use
   xlink:href="#SVGID_5_"
   style="overflow:visible"
   id="use99"
   x="0"
   y="0"
   width="100%"
   height="100%" />
			</clipPath>
		</g>
	</g>
</g>
</svg>